# xmcd
#
# Track frame offsets:
#	150
#	15570
#	31190
#	51284
#	70686
#	92630
#	109662
#	124721
#	145931
#	162522
#	181585
#
# Disc length: 2699 seconds
#
# Revision: 0
# Processed by: cddbd v1.5.2PL0 Copyright (c) Steve Scherf et al.
# Submitted via: EasyCDDAExtractor 9.1.3.1
#
DISCID=870a890b
DTITLE=Pam Tillis - Rhinestoned
DYEAR=2007
DGENRE=Country
TTITLE0=Something Burning Out
TTITLE1=Band in the Window
TTITLE2=Train Without a Whistle
TTITLE3=Life Has Sure Changed Us Around (duet with John Anderson)
TTITLE4=Someone Somewhere Tonight
TTITLE5=Down By the Water
TTITLE6=Crazy By Myself
TTITLE7=Bettin' Money on Love
TTITLE8=That Was A Heartache
TTITLE9=The Hard Way
TTITLE10=Over My Head
EXTD=
EXTT0=
EXTT1=
EXTT2=
EXTT3=
EXTT4=
EXTT5=
EXTT6=
EXTT7=
EXTT8=
EXTT9=
EXTT10=
PLAYORDER=
